<svg viewBox="0 0 1200 360" width="1200" height="360" xmlns="http://www.w3.org/2000/svg">
  <defs>
    <linearGradient id="bgGrad" x1="0%" y1="0%" x2="100%" y2="100%">
      <stop offset="0%" stop-color="#0b0f19"/>
      <stop offset="50%" stop-color="#101826"/>
      <stop offset="100%" stop-color="#0a0e14"/>
    </linearGradient>
    <radialGradient id="glow" cx="50%" cy="30%" r="60%">
      <stop offset="0%" stop-color="#3b82f6" stop-opacity="0.25"/>
      <stop offset="100%" stop-color="#3b82f6" stop-opacity="0"/>
    </radialGradient>
  </defs>

  <rect x="0" y="0" width="1200" height="360" fill="url(#bgGrad)"/>
  <rect x="0" y="0" width="1200" height="360" fill="url(#glow)"/>

  <g opacity="0.12" stroke="#8ab4f8" stroke-width="1" fill="none">
    <circle cx="150" cy="80" r="60"/>
    <circle cx="1080" cy="290" r="90"/>
    <circle cx="1000" cy="60" r="40"/>
    <line x1="0" y1="300" x2="1200" y2="260"/>
    <line x1="0" y1="60" x2="400" y2="20"/>
  </g>

  <g opacity="0.08" fill="#ffffff">
    <circle cx="200" cy="250" r="3"/>
    <circle cx="950" cy="120" r="2.5"/>
    <circle cx="700" cy="60" r="2"/>
    <circle cx="330" cy="300" r="2.5"/>
    <circle cx="880" cy="300" r="2"/>
  </g>

  <path d="M0,340 C300,300 900,300 1200,340" stroke="#3b82f6" stroke-width="1" fill="none" opacity="0.15"/>

  <text x="600" y="165" text-anchor="middle" font-family="Segoe UI, Arial, sans-serif" font-size="60.0" fill="#ffffff" font-weight="600">
    <tspan>Universal Scripts</tspan>
  </text>

  <text x="600" y="225" text-anchor="middle" font-family="Segoe UI, Arial, sans-serif" font-size="20.0" fill="#c9d1d9">
    <tspan x="600" dy="0">Universal script runner for tinkerers stuck juggling configs —</tspan>
    <tspan x="600" dy="30">pipeline, hot reload, preview.</tspan>
  </text>
</svg>